<svg xmlns="http://www.w3.org/2000/svg" viewBox="0 0 261.71 576.25"><defs><style>.cls-1{fill:#fff;}</style></defs><title>avatar</title><g id="Layer_2" data-name="Layer 2"><g id="Layer_1-2" data-name="Layer 1"><path class="cls-1" d="M3.11,3a124.87,124.87,0,0,1,47.41,8.74A129.63,129.63,0,0,1,91.26,37.31a121.29,121.29,0,0,1,28.43,39.74,128.52,128.52,0,0,1,10.78,49.14,126.66,126.66,0,0,1-8.82,49.48c-.79,2-1.65,4-2.55,5.89-.81,1.74,1.78,3.27,2.59,1.51a128.35,128.35,0,0,0,11.75-50.28,132.43,132.43,0,0,0-8.5-50.8A124.13,124.13,0,0,0,97.76,39.45,132,132,0,0,0,57.32,11.38,129.35,129.35,0,0,0,9.23.07Q6.17,0,3.11,0a1.5,1.5,0,0,0,0,3Z"/><path class="cls-1" d="M5.18,72.55a98.64,98.64,0,0,1,68.21,13,96.37,96.37,0,0,1,41.68,54.73,97.22,97.22,0,0,1,3.46,39.22c-.23,1.91,2.77,1.89,3,0a101.51,101.51,0,0,0-17.41-68.94,99.44,99.44,0,0,0-59-39.8A100.31,100.31,0,0,0,4.38,69.66c-1.89.35-1.09,3.24.8,2.89Z"/><path class="cls-1" d="M23,165.14a79,79,0,0,1,54.79-5.84,76.19,76.19,0,0,1,14.84,5.48c1.72.85,3.25-1.73,1.51-2.59A82.21,82.21,0,0,0,37,156.61a79.72,79.72,0,0,0-15.5,5.94c-1.72.87-.2,3.46,1.52,2.59Z"/><path class="cls-1" d="M37.38,191.27a53.87,53.87,0,0,1,44-3.21c1.82.67,2.6-2.23.8-2.89a56.83,56.83,0,0,0-46.29,3.51c-1.7.93-.19,3.52,1.51,2.59Z"/><path class="cls-1" d="M49.7,185.92a10.45,10.45,0,0,0,8.1,9.21,9.79,9.79,0,0,0,10.65-5.2,10.05,10.05,0,0,0,1-7.09c-.45-1.88-3.34-1.09-2.89.79A7.4,7.4,0,0,1,61,192.27c-3.82.8-8-2.53-8.28-6.35a1.54,1.54,0,0,0-1.5-1.5,1.5,1.5,0,0,0-1.5,1.5Z"/><path class="cls-1" d="M55.82,190H68.67a1.5,1.5,0,0,0,0-3H55.82a1.5,1.5,0,0,0,0,3Z"/><path class="cls-1" d="M54.56,187.23l10.28,1.28a1.5,1.5,0,0,0,1.5-1.5,1.54,1.54,0,0,0-1.5-1.5l-10.28-1.28a1.5,1.5,0,0,0-1.5,1.5,1.54,1.54,0,0,0,1.5,1.5Z"/><path class="cls-1" d="M55.82,193.79a9.87,9.87,0,0,0,9.1-5.76,1.54,1.54,0,0,0-.54-2.05,1.51,1.51,0,0,0-2,.54,8.16,8.16,0,0,1-.52,1c-.11.18-.23.35-.35.52s-.23.27,0,0l-.18.22a9,9,0,0,1-.81.82l-.21.18c-.29.25.25-.18-.06.05l-.47.32a8.21,8.21,0,0,1-1,.56l-.14.06-.14.05-.54.19-.55.14-.34.07-.14,0-.14,0-.28,0q-.31,0-.63,0a1.5,1.5,0,1,0,0,3Z"/><path class="cls-1" d="M57,190.12l1.29-3.85a1.5,1.5,0,1,0-2.89-.8l-1.3,3.85a1.52,1.52,0,0,0,1,1.85,1.54,1.54,0,0,0,1.85-1Z"/><path class="cls-1" d="M5.43,262.81c8.76,2.9,18.83-4.46,18.89-13.64l-2.8.76c3.57,4.65,10.46,5.44,15.35,2.36A9.79,9.79,0,0,0,41.51,245a11.73,11.73,0,0,0-3.11-8.74,10.92,10.92,0,0,0-9.72-3.73,1.51,1.51,0,0,0-1.05,1.84,1.53,1.53,0,0,0,1.84,1c6-.81,11.35,7,8.06,12.2-2.71,4.25-10.27,4.93-13.42.83a1.51,1.51,0,0,0-2.79.75c-.05,7.32-8.2,13-15.09,10.75-1.84-.61-2.62,2.29-.8,2.89Z"/><path class="cls-1" d="M5.68,284a147.42,147.42,0,0,0,54.53-12.42L58,269.92C52.68,287.37,36.41,300.18,18.62,303a43.63,43.63,0,0,1-15.12-.26c-1.88-.37-2.69,2.52-.8,2.89,19.15,3.74,39.35-5,50.91-20.5a47.06,47.06,0,0,0,7.28-14.39,1.52,1.52,0,0,0-2.2-1.7,143.78,143.78,0,0,1-53,12c-1.93.06-1.94,3.06,0,3Z"/><path class="cls-1" d="M3.67,371.53a77.15,77.15,0,0,0,43-4.54,95.27,95.27,0,0,0,35.81-25.34c10.14-11.43,17.71-24.89,23.2-39.12,5.87-15.24,9.22-31.29,11.12-47.48,2.1-17.8,2.42-35.75,2.55-53.65,0-2.27,0-4.54.05-6.81a1.5,1.5,0,0,0-3,0c-.1,17.5-.21,35-1.77,52.49-1.46,16.21-4.23,32.35-9.39,47.82-4.72,14.15-11.44,27.8-20.67,39.58a95.15,95.15,0,0,1-33.41,27.28c-12.79,6.17-27.21,9.21-41.39,7.68-1.77-.19-3.53-.47-5.27-.81s-2.7,2.53-.8,2.9Z"/><path class="cls-1" d="M130.94,171c6-1.83,11.2,3.49,12.92,8.76a35.85,35.85,0,0,1,1.43,10c.12,3.71.11,7.42,0,11.13a172,172,0,0,1-2.31,23c-1.08,6.35-2.56,13-6.59,18.25-3.78,4.86-10.86,8.41-16.92,5.78-1.75-.76-3.28,1.82-1.51,2.59,6.17,2.68,13,.69,18-3.56,5.44-4.68,7.88-11.95,9.28-18.77a162.46,162.46,0,0,0,3-25.07q.3-6.45.11-12.91a40.49,40.49,0,0,0-1.49-11c-2.17-6.88-8.93-13.41-16.66-11.06-1.85.57-1.06,3.46.79,2.9Z"/><path class="cls-1" d="M1.82,295.65a181,181,0,0,0,46.62-8.16c1.84-.58,1.05-3.47-.8-2.89a177.91,177.91,0,0,1-45.82,8c-1.92.08-1.93,3.08,0,3Z"/><path class="cls-1" d="M88,335.09l1.28,63c0,1.93,3,1.94,3,0l-1.28-63c0-1.93-3-1.93-3,0Z"/><path class="cls-1" d="M90,401.07a197.79,197.79,0,0,1,93.75,37.47,186.8,186.8,0,0,1,36.47,35.79,188.67,188.67,0,0,1,25.5,44.49,184.6,184.6,0,0,1,12.48,49.68c.22,2.1.41,4.2.55,6.31.14,1.91,3.14,1.93,3,0a186.36,186.36,0,0,0-10.93-51,192.12,192.12,0,0,0-24.44-46.16A189.51,189.51,0,0,0,190.5,440,200.67,200.67,0,0,0,96.43,399q-3.24-.49-6.48-.88c-1.91-.23-1.9,2.77,0,3Z"/><path class="cls-1" d="M89.23,403.71a71.15,71.15,0,0,1-16.66,44.92,69.79,69.79,0,0,1-42.69,23.75,69.83,69.83,0,0,1-28-1.33c-1.87-.48-2.67,2.41-.79,2.89a74.41,74.41,0,0,0,51.08-5.5A72.54,72.54,0,0,0,86.4,431.66a73,73,0,0,0,5.83-28,1.5,1.5,0,0,0-3,0Z"/><path class="cls-1" d="M125.59,188.85a21.9,21.9,0,0,1,1,32.77c-1.39,1.34.73,3.46,2.12,2.12a24.88,24.88,0,0,0-1-37c-1.45-1.25-3.59.86-2.12,2.12Z"/></g></g></svg>