<svg xmlns="http://www.w3.org/2000/svg" viewBox="0 0 521.05 305.52"><defs><style>.cls-1{fill:#fff;}</style></defs><title>illus-kanan-bawah</title><g id="Layer_2" data-name="Layer 2"><g id="Layer_1-2" data-name="Layer 1"><path class="cls-1" d="M314.63,238.45,281,269.27c-.26.24,0,2.13,0,2.5,0,.59,0,1.18,0,1.77a3,3,0,0,1,0,.73l33.59-30.82c.26-.24,0-2.12,0-2.5,0-.59,0-1.18,0-1.76a3.08,3.08,0,0,1,0-.74Z" transform="translate(-0.26)"/><path class="cls-1" d="M323.83,243.51l-4.11,8.23a2.6,2.6,0,0,0,0,.73c0,.59,0,1.18,0,1.77s0,1.18,0,1.77a2.58,2.58,0,0,1,0,.73l4.11-8.23a2.6,2.6,0,0,0,0-.73c0-.59,0-1.18,0-1.77s0-1.18,0-1.77a2.58,2.58,0,0,1,0-.73Z" transform="translate(-0.26)"/><path class="cls-1" d="M334.58,243.45l-1.39,5.49a3.57,3.57,0,0,0,0,.73c0,.59,0,1.18,0,1.77s0,1.17,0,1.76a3.67,3.67,0,0,1,0,.74l1.39-5.49a4.51,4.51,0,0,0,0-.73v-3.53a3.08,3.08,0,0,1,0-.74Z" transform="translate(-0.26)"/><path class="cls-1" d="M342.68,246.1l-2.83,6.83a3,3,0,0,0,0,.73c0,.59,0,1.18,0,1.77s0,1.18,0,1.76a3.1,3.1,0,0,1,0,.74l2.83-6.83a3,3,0,0,0,0-.73c0-.59,0-1.18,0-1.77s0-1.17,0-1.76a2.63,2.63,0,0,1,0-.74Z" transform="translate(-0.26)"/><path class="cls-1" d="M316.71,253l-4.14,11a3.74,3.74,0,0,0,0,.74v3.53a2.25,2.25,0,0,1,0,.73l4.14-11a3,3,0,0,0,0-.73v-3.54a3,3,0,0,1,0-.73Z" transform="translate(-0.26)"/><path class="cls-1" d="M330.58,258.54,327.84,264a2.6,2.6,0,0,0,0,.73c0,.59,0,1.18,0,1.77s0,1.18,0,1.77v.39a2,2,0,0,0,0,.34l2.74-5.49a2.6,2.6,0,0,0,0-.73c0-.59,0-1.18,0-1.77s0-1.18,0-1.77v-.39c0-.11,0-.22,0-.34Z" transform="translate(-0.26)"/><path class="cls-1" d="M341.66,269.08s0-5,0-5,0,5,0,5Z" transform="translate(-0.26)"/><path class="cls-1" d="M351.25,263.47a2.08,2.08,0,0,0-2,1.93,11.58,11.58,0,0,0-.07,1.86c0,1.25,0,2.51,0,3.76a3.83,3.83,0,0,0,0,.47,2.93,2.93,0,0,0,.56,1.42,1.81,1.81,0,0,0,1.48.68c.08,0,0-5,0-5-1.29,0-2-1.15-2.06-2.3v.09s0-.06,0-.09c0-.81,0-.06,0,2.23s0,3,0,2.23c0,0,0-.06,0-.09v.09c.09-1.14.75-2.3,2-2.28,0,0,.06-5,0-5Z" transform="translate(-0.26)"/><path class="cls-1" d="M290.87,281.43,293.6,302c-.21-1.64.22-3.36,0-5l-2.73-20.58c.22,1.63-.22,3.36,0,5Z" transform="translate(-0.26)"/><path class="cls-1" d="M282.6,276.37q25.14,5.1,50.55,8.77t51,5.88q14.43,1.25,28.9,2s.13-5,0-5q-25.62-1.38-51.13-4.22t-50.81-7.14q-14.28-2.43-28.48-5.31c.29.06-.36,4.93,0,5Z" transform="translate(-0.26)"/><path class="cls-1" d="M343,211.7l56.56,3.45,16.2,1c-.07,0,.13-5,0-5l-56.56-3.45-16.2-1c.07,0-.14,5,0,5Z" transform="translate(-0.26)"/><path class="cls-1" d="M356.75,244.88l-4.11,6.86a2.61,2.61,0,0,0,0,.73c0,.59,0,1.18,0,1.77s0,1.18,0,1.77c0,.15.09.61,0,.73l4.11-6.86a3,3,0,0,0,0-.73c0-.59,0-1.18,0-1.77v-1.77c0-.15-.09-.61,0-.73Z" transform="translate(-0.26)"/><path class="cls-1" d="M359.57,251.08a3.92,3.92,0,0,1,2.14,3.38v-.09c.05.79,0,1.73,0-2s0-2.83,0-2.05v-.09a4,4,0,0,1-2.46,3.6,4.56,4.56,0,0,0,0,.73c0,.59,0,1.18,0,1.77s0,1.18,0,1.77c0,.07,0,.72,0,.73a3.88,3.88,0,0,0,2.39-3.07,6.89,6.89,0,0,0,.09-1.19c0-1.63.08-3.27,0-4.9a4.83,4.83,0,0,0-.5-2,3.51,3.51,0,0,0-1.65-1.58s0,.84,0,.73c0,.59,0,1.18,0,1.77s0,1.18,0,1.77a2.87,2.87,0,0,0,0,.73Z" transform="translate(-0.26)"/><path class="cls-1" d="M377.32,250.37l-4.11,4.11a3.08,3.08,0,0,0,0,.73c0,.59,0,1.18,0,1.77s0,1.18,0,1.77v.39a1.9,1.9,0,0,0,0,.34l4.11-4.11a3.08,3.08,0,0,0,0-.73c0-.59,0-1.18,0-1.77s0-1.18,0-1.77v-.39c0-.11,0-.23,0-.34Z" transform="translate(-0.26)"/><path class="cls-1" d="M377.32,255.37l6.29-.13v-5l-3.76,5.46a2.68,2.68,0,0,0,0,.74c0,.59,0,1.18,0,1.76s0,1.18,0,1.77v.39c0,.12,0,.23,0,.34l3.76-5.46a3.06,3.06,0,0,0,0-.73v-1.77c0-.18,0-2.5,0-2.5l-6.29.13c-.07,0,0,5,0,5Z" transform="translate(-0.26)"/><path class="cls-1" d="M395,251.62l-2.79,4.08a1.62,1.62,0,0,0,0,.22c0,.17,0,.34,0,.52,0,.58,0,1.17,0,1.76s0,1.18,0,1.77v.39a1.9,1.9,0,0,0,0,.34l2.79-4.08a1.48,1.48,0,0,0,0-.21c0-.18,0-.35,0-.52V252c0-.11,0-.23,0-.34Z" transform="translate(-0.26)"/><path class="cls-1" d="M395.15,256.74l4.93,2.71v-5l-2.18,2.78a3.06,3.06,0,0,0,0,.73c0,.59,0,1.18,0,1.77s0,1.17,0,1.76v.39c0,.12,0,.23,0,.35l2.18-2.78a3.07,3.07,0,0,0,0-.73v-3.54a3.46,3.46,0,0,0,0-.73l-4.93-2.71s0,.84,0,.73V256a3.46,3.46,0,0,0,0,.73Z" transform="translate(-0.26)"/><path class="cls-1" d="M413.07,249.07,409,254.55a3.07,3.07,0,0,0,0,.73c0,.59,0,1.18,0,1.77s0,1.18,0,1.77v.39a1.93,1.93,0,0,0,0,.34l4.11-5.48a2.69,2.69,0,0,0,0-.74c0-.59,0-1.18,0-1.76s0-1.18,0-1.77v-.39c0-.12,0-.23,0-.34Z" transform="translate(-0.26)"/><path class="cls-1" d="M353.89,267.94l3.55,1.36v-5l-2.64,5a3,3,0,0,0,0,.73c0,.59,0,1.18,0,1.77s0,1.18,0,1.77v.39c0,.11,0,.23,0,.34l2.64-5a3.13,3.13,0,0,0,0-.74c0-.59,0-1.17,0-1.76V265a3.42,3.42,0,0,0,0-.73l-3.55-1.36s0,.84,0,.73v3.54a3.44,3.44,0,0,0,0,.73Z" transform="translate(-0.26)"/><path class="cls-1" d="M369.09,264.08l-2.74,5.49a3,3,0,0,0,0,.73v3.93c0,.11,0,.23,0,.34l2.74-5.49a2.6,2.6,0,0,0,0-.73c0-.59,0-1.18,0-1.77s0-1.18,0-1.76v-.4c0-.11,0-.22,0-.34Z" transform="translate(-0.26)"/><path class="cls-1" d="M378.58,265.36l-5.49,6.86a3,3,0,0,0,0,.73c0,.59,0,1.18,0,1.77s0,1.18,0,1.77c0,.13.08.65,0,.73l5.49-6.86a3.06,3.06,0,0,0,0-.73c0-.59,0-1.18,0-1.77s0-1.18,0-1.76c0-.14-.09-.65,0-.74Z" transform="translate(-0.26)"/><path class="cls-1" d="M382.57,267a18.29,18.29,0,0,1-3.85,7.71,3.07,3.07,0,0,0,0,.73c0,.59,0,1.18,0,1.77,0,.19-.05,2.49,0,2.5l4.08.44s0-2.32,0-2.5.05-2.5,0-2.5l-4.08-.44v5a18.29,18.29,0,0,0,3.85-7.71,4.48,4.48,0,0,0,0-.73c0-.59,0-1.18,0-1.77s0-1.18,0-1.77a3.57,3.57,0,0,1,0-.73Z" transform="translate(-0.26)"/><path class="cls-1" d="M395.15,268.2l-2.25,5.25a2.66,2.66,0,0,0,0,.74c0,.59,0,1.18,0,1.76s0,1.18,0,1.77c0,.1-.05.69,0,.73a2.61,2.61,0,0,0,3.64-1.13,3,3,0,0,0,0-.73v-3.93c0-.11,0-.22,0-.34a2.61,2.61,0,0,1-3.64,1.13v5l2.25-5.25a2.66,2.66,0,0,0,0-.74c0-.58,0-1.17,0-1.76s0-1.18,0-1.77v-.39c0-.12,0-.23,0-.34Z" transform="translate(-0.26)"/><path class="cls-1" d="M404.75,269.57l-1.37,5.49a4.48,4.48,0,0,0,0,.73v3.53a3.07,3.07,0,0,1,0,.74l1.37-5.49a3.6,3.6,0,0,0,0-.73c0-.59,0-1.18,0-1.77s0-1.18,0-1.77a3.59,3.59,0,0,1,0-.73Z" transform="translate(-0.26)"/><path class="cls-1" d="M316.22,236.07l5-37.12,2.45-18.31.33-2.47c.05-.41,0-1.74.26-2a9.33,9.33,0,0,1,2.48,0l2.48,0c3.05,0,6.11-.06,9.16-.11q37-.62,74-3.93,20.73-1.86,41.37-4.57v-5q-3.39,30.4-6.77,60.81L445,240.66c-.18,1.65.18,3.36,0,5l6.76-60.81,1.93-17.3c.05-.49-.08-5,0-5q-36.74,4.81-73.74,7-18.42,1.06-36.88,1.45-4.71.1-9.41.16l-4.46,0-2,0a9.24,9.24,0,0,0-2.73,0h-.25l-.13,1-.13,1-.3,2.22L323,180.1l-1.25,9.4-5.56,41.57c-.22,1.64.22,3.37,0,5Z" transform="translate(-0.26)"/><path class="cls-1" d="M317,239l98.25-.09,27.92,0s0-5,0-5l-98.24.1L317,234s0,5,0,5Z" transform="translate(-0.26)"/><path class="cls-1" d="M444.5,239.37a186.41,186.41,0,0,0-30.09,39.83,7.48,7.48,0,0,0,0,2.5v1.77a2.26,2.26,0,0,1,0,.73,186.41,186.41,0,0,1,30.09-39.83c.28-.28,0-2.1,0-2.5,0-.59,0-1.18,0-1.77a3,3,0,0,1,0-.73Z" transform="translate(-0.26)"/><path class="cls-1" d="M444.74,243.61,443.31,282c0,1,0,2.05,0,3.07,0,.5,0,1,0,1.5,0,0,0,.49,0,.25l1.43-38.4c0-1,0-2.05,0-3.08,0-.49,0-1,0-1.49,0,0,0-.49,0-.25Z" transform="translate(-0.26)"/><path class="cls-1" d="M341.59,197.43l67.33,4.67,19.14,1.33c-.08,0,.15-5,0-5l-67.34-4.67-19.13-1.33c.08,0-.15,5,0,5Z" transform="translate(-0.26)"/><path class="cls-1" d="M411.1,164.65a14.73,14.73,0,0,1-2.53-4.31,16.72,16.72,0,0,1-.65-2.3c-.08-.39-.14-.79-.2-1.19,0-.17,0-.34-.05-.51-.24-2.47-.05,2.2-.07,2.29a26.75,26.75,0,0,1,3-10.16c3.78-6.68,10.64-10.94,17.34-14.23,7-3.44,14.44-6.09,21-10.4s11.35-10.09,13.4-17.64a43.79,43.79,0,0,0,1.31-11,90.81,90.81,0,0,0-.55-12.45C462,74,459.29,65.63,457.7,57c-.41-2.25-.75-4.51-1-6.79-.12-1.29-.13-2.59-.23-3.88,0-.12-.08,3.46,0,1.74,0-.24,0-.47,0-.71,0-.68.09-1.35.17-2a41.52,41.52,0,0,1,2.58-10.52,46.54,46.54,0,0,1,12.18-17.61C483.26,6.6,500,3,515.39,6.05a55.64,55.64,0,0,1,5.84,1.52c-.08,0,0-2.29,0-2.5a12.11,12.11,0,0,0,0-2.5c-15.51-4.92-33.38-2.88-46.54,7a46.81,46.81,0,0,0-14.05,17.16,42.78,42.78,0,0,0-3.44,10.46,64.91,64.91,0,0,0-.73,13c.12,9.2,2.59,18,4.65,27a99.49,99.49,0,0,1,2.23,12.6c.1,1.06.18,2.12.23,3.18,0,.56.06,2.64.05.32s-.05,0-.08.56a38.37,38.37,0,0,1-.86,6c-1.79,7.92-6.57,14.16-13.23,18.66s-14.3,7.2-21.49,10.73c-6.92,3.4-14,7.84-17.69,14.87a22.91,22.91,0,0,0-2.69,9.88c-.14,3.68-.34,7.66.92,11.19a14.72,14.72,0,0,0,2.59,4.47,4.24,4.24,0,0,1,0-.74v-3.53c0-.15.06-.63,0-.73Z" transform="translate(-0.26)"/><path class="cls-1" d="M286,259.29c-1.71-12.72-14.86-20.5-26.85-20.83-15.66-.43-29.4,9.62-41.21,18.71-12,9.26-24.43,18.94-40,20.82a53.7,53.7,0,0,1-38.82-10.58,40.28,40.28,0,0,1-13-16.47,29.55,29.55,0,0,1-1.44-4.6,24.25,24.25,0,0,1-.44-2.55c-.07-.54-.09-1.07-.14-1.61-.06,2.95,0,3.59,0,1.94q0-.42.09-.84a16.76,16.76,0,0,1,3.28-8.3c5.68-7.13,20.45-9.7,24.84.2a11.65,11.65,0,0,1,.91,3.32c.34,3,.32-5.4,0-2.38a14.15,14.15,0,0,1-1.21,4.37,19.72,19.72,0,0,1-6,7.4c-6.23,4.78-14.48,5-22,4.47s-15.1-1.55-22.74-1.45a127.56,127.56,0,0,0-21,2A133,133,0,0,0,7.27,292.49q-3.61,3.87-6.88,8c-.28.37,0,2,0,2.5s0,1.18,0,1.77c0,.13.08.64,0,.73,18.11-23,44.25-39.23,72.68-46a131.34,131.34,0,0,1,44.27-2.76c8,.83,16.95,2,24.61-1.35,5.78-2.54,11-8.21,11.42-14.72.42-5.84.16-12.45-5.68-15.5-4.54-2.37-10.31-1.71-14.75.54-5.4,2.74-8.34,7.87-8.76,13.85a44.17,44.17,0,0,0,.3,10.53,31.34,31.34,0,0,0,3.87,10.27c7.2,12.43,21.12,20.21,35.05,22.38a52.22,52.22,0,0,0,21.3-1c7.76-2,14.81-6.07,21.35-10.63,13.18-9.18,25.13-21.08,40.86-25.82,6.88-2.07,14.12-2.49,21-.27,6,1.93,11.62,5.65,15,11a20.31,20.31,0,0,1,3,8.31c-.22-1.63.22-3.36,0-5Z" transform="translate(-0.26)"/><path class="cls-1" d="M467.84,173l1.37,21.94c-.08-1.19.11-3.31,0-4.82l-1.37-21.94c.07,1.18-.11,3.31,0,4.82Z" transform="translate(-0.26)"/><path class="cls-1" d="M481.07,175.23c2.88-2.31,6.91-2.31,10.15-.77a10.11,10.11,0,0,1,4,3.36,8.08,8.08,0,0,1,1.14,2.41,8.76,8.76,0,0,1,.24,1.26l0,.33v-4c0,.14,0,.29,0,.43a7.81,7.81,0,0,1-.14.82,10.68,10.68,0,0,1-8.38,7.85,8.37,8.37,0,0,1-9-4.85,11.13,11.13,0,0,1-.91-2.81c0-.24-.08-.48-.11-.73a2.45,2.45,0,0,1,0-.27l0-.28c0-.84,0-.25,0,1.76,0,3.84-.06,2.43,0,1.76,0-.18,0-.36.05-.55s.07-.48.11-.72a8.62,8.62,0,0,1,2.89-5,3.83,3.83,0,0,0,0-.74c0-.59,0-1.17,0-1.76s0-1.18,0-1.77a3.69,3.69,0,0,1,0-.73,8.59,8.59,0,0,0-2.87,4.93A19,19,0,0,0,478,179a33.85,33.85,0,0,0,.13,4.83c.56,4,3.39,7.75,7.61,8.2,4.49.47,9-2.76,10.49-6.94a10.28,10.28,0,0,0,.49-3.3,31.44,31.44,0,0,0-.14-5.82,8.58,8.58,0,0,0-3-5c-3.42-2.91-8.87-3.67-12.51-.75a3.72,3.72,0,0,0,0,.73v3.53a3.13,3.13,0,0,1,0,.74Z" transform="translate(-0.26)"/><path class="cls-1" d="M466.41,210a7.24,7.24,0,0,1,7.39-1.42,7.84,7.84,0,0,1,3.31,2.11,6.27,6.27,0,0,1,1.39,2.56c0,.18.08.36.11.55s0,.21,0,.31l0,.23v-4.2a8.09,8.09,0,0,1-5.62,6.82,6.3,6.3,0,0,1-7.19-2.87,8.18,8.18,0,0,1-.9-2,7.64,7.64,0,0,1-.26-1.15c0-.18-.05-.36-.07-.55-.17-2.07-.18,5.48,0,3.63a6.55,6.55,0,0,1,1.77-4,3.16,3.16,0,0,0,0-.74v-3.53a3,3,0,0,1,0-.73,6.47,6.47,0,0,0-1.77,4,48.74,48.74,0,0,0,0,5.54,9.42,9.42,0,0,0,.27,2.25c.76,3,3.21,5.52,6.41,5.48a7.94,7.94,0,0,0,7.29-6.24,25.43,25.43,0,0,0,.15-5,10,10,0,0,0-.33-3.14,6.6,6.6,0,0,0-2.72-3.37c-2.78-1.8-6.8-1.89-9.25.53a3.07,3.07,0,0,0,0,.73c0,.59,0,1.18,0,1.77s0,1.18,0,1.77a3,3,0,0,1,0,.73Z" transform="translate(-0.26)"/><path class="cls-1" d="M485.65,202.12v19.2c0,.19,0,2.5,0,2.5s0-2.47,0-2.5v-19.2c0-.19,0-2.5,0-2.5s0,2.48,0,2.5Z" transform="translate(-0.26)"/><path class="cls-1" d="M467.82,230.92v16.46c0,.19,0,2.5,0,2.5s0-2.47,0-2.5V230.92c0-.18,0-2.5,0-2.5s0,2.48,0,2.5Z" transform="translate(-0.26)"/><path class="cls-1" d="M485.48,230.08a6.55,6.55,0,0,0-2.76,4.29,22.55,22.55,0,0,0-.17,4.27,21,21,0,0,0,.16,3.72,7,7,0,0,0,7.94,5.64,8.15,8.15,0,0,0,7.29-7.48c.12-1.79.06-3.61,0-5.41a10.92,10.92,0,0,0-.42-2.89,9.65,9.65,0,0,0-3.27-4.87c-3.92-3.06-9.78-2.37-13.43.75a3.72,3.72,0,0,0,0,.73c0,.59,0,1.18,0,1.77s0,1.18,0,1.77a3.66,3.66,0,0,1,0,.73,11.28,11.28,0,0,1,10.82-2.16,9.53,9.53,0,0,1,6.21,7.87l0,.21q.18,2.49,0-3.62c0,.26,0,.51-.07.76a8.68,8.68,0,0,1-.27,1.25,7.32,7.32,0,0,1-1.11,2.26,8.31,8.31,0,0,1-3.86,2.85c-3,1.11-6.7.55-8.66-2.16a7.15,7.15,0,0,1-1.13-2.44,7.56,7.56,0,0,1-.23-1.33c-.22-2.15-.25,5.58,0,3.44,0-.19.05-.38.08-.57a6.54,6.54,0,0,1,2.78-4.38,3.73,3.73,0,0,0,0-.73c0-.59,0-1.18,0-1.77s0-1.18,0-1.77a4.63,4.63,0,0,1,0-.73Z" transform="translate(-0.26)"/><path class="cls-1" d="M466.56,257.24a56.11,56.11,0,0,0-.51,13.58A35.8,35.8,0,0,0,469,282.9a3.49,3.49,0,0,1,0-.73c0-.59,0-1.18,0-1.77s0-1.18,0-1.77a2.54,2.54,0,0,0,0-.73,35.66,35.66,0,0,1-2.57-8.68c-.11-.73-.21-1.47-.28-2.2,0-.47-.08-.93-.1-1.39-.11-2-.1,2.72,0,1.49a40,40,0,0,1,.55-4.88,14.89,14.89,0,0,0,0-2.5,14.92,14.92,0,0,1,0-2.5Z" transform="translate(-0.26)"/><path class="cls-1" d="M488.33,259.12c3.53-.76,7.08,1.25,8.92,4.23a8.78,8.78,0,0,1,1,2.37,9.12,9.12,0,0,1,.22,1.27c.13,1.12.07-4.5,0-3.92,0,.17,0,.33,0,.49s-.07.45-.12.67A7.46,7.46,0,0,1,496,268a9.44,9.44,0,0,1-8.4,2.08,7.38,7.38,0,0,1-5.38-6.44l0-.24c0-.11,0-.22,0-.33,0-.74,0-.11,0,1.92,0,3.82-.06,2.51,0,1.83,0-.14,0-.27,0-.41a9.31,9.31,0,0,1,.24-1.3,9.51,9.51,0,0,1,.91-2.3,7.66,7.66,0,0,1,3.69-3.33,12.16,12.16,0,0,0,0-2.5v-1.77a6.3,6.3,0,0,1,0-.73c-3.27,1.37-4.85,4.79-4.92,8.18,0,1.83-.1,3.7,0,5.53a9.17,9.17,0,0,0,.52,2.43,7.15,7.15,0,0,0,3.17,3.76,9.08,9.08,0,0,0,9.63-1,7.55,7.55,0,0,0,2.81-4.06,16,16,0,0,0,.26-4,19.63,19.63,0,0,0-.24-4.53c-1-4.29-5.53-7.73-10-6.78a20.48,20.48,0,0,0,0,2.5c0,.19.09,2.48,0,2.5Z" transform="translate(-0.26)"/><path class="cls-1" d="M507.69,173.07l2.75,24.68c-.18-1.64.19-3.35,0-5l-2.75-24.68c.18,1.64-.19,3.35,0,5Z" transform="translate(-0.26)"/><path class="cls-1" d="M498.59,210.29a6.85,6.85,0,0,1,9.89-3.17,5.59,5.59,0,0,1,1.87,2.22,6.75,6.75,0,0,1,.46,1.33,7,7,0,0,1,.13.8c.28,2.19.28-5.64,0-3.27a6.47,6.47,0,0,1-3.07,4.87,4.73,4.73,0,0,0,0,.73c0,.59,0,1.18,0,1.77,0,.2.11,2.48,0,2.5l8.1-2a18.66,18.66,0,0,0,0-2.5,23.47,23.47,0,0,1,0-2.5l-8.1,2v5a6.35,6.35,0,0,0,2.95-4.16,16,16,0,0,0,.2-3.46,26.69,26.69,0,0,0-.12-4.38c-.65-3.85-4.43-5.76-8-4.65a6.48,6.48,0,0,0-4.26,3.87,3.72,3.72,0,0,0,0,.74v3.53a2.26,2.26,0,0,1,0,.73Z" transform="translate(-0.26)"/><path class="cls-1" d="M505.71,231c1.31-3.09,6-3.87,8.33-1.48a4.57,4.57,0,0,1,1.11,2.24c-1-4,.28-5.1,0-3.42a5.06,5.06,0,0,1-.17.67,6,6,0,0,1-.58,1.26,5,5,0,0,1-4.57,2.52s0,2.31,0,2.5a12.11,12.11,0,0,0,0,2.5,6,6,0,0,1,3.88,5.28c.09.78,0,2,0-1.6s.06-2.39,0-1.61a6.47,6.47,0,0,1-.15.88,6.72,6.72,0,0,1-.63,1.63,5.28,5.28,0,0,1-2.53,2.32,12.15,12.15,0,0,0,0,2.5,13.13,13.13,0,0,1,0,2.5c3.79-1.67,3.41-6.05,3.39-9.49,0-3-.68-6.33-3.95-7.41v5a5.13,5.13,0,0,0,5-3.35,9.75,9.75,0,0,0,.44-3.84A13.93,13.93,0,0,0,515,226c-1.4-4-7.69-3.65-9.25,0a2.6,2.6,0,0,0,0,.73c0,.59,0,1.18,0,1.77s0,1.18,0,1.77a3,3,0,0,1,0,.73Z" transform="translate(-0.26)"/><path class="cls-1" d="M506.25,262.22l5.74-2.17a7.08,7.08,0,0,1,1.49-.57c.18.12.2,1,.23,1.21s0,.41.07.62l0,.32c0,.83,0,.27,0-1.7s0-2.53,0-1.69l0,.42c0,.21,0,.41-.08.62a13.42,13.42,0,0,1-4.44,8.22,3.82,3.82,0,0,0,0,.74c0,.58,0,1.17,0,1.76,0,.19-.05,2.49,0,2.5l6.59.7c-.13,0,.22-5,0-5l-6.59-.7v5a13.59,13.59,0,0,0,4.58-10c0-1.84.07-3.69,0-5.52a11.75,11.75,0,0,0-.11-1.32c0-.23-.07-.47-.12-.7l-.06-.31c0-.24-.08-.28-.3-.1a3,3,0,0,0-.74.28l-1,.38-1.75.66-3.49,1.32a12.86,12.86,0,0,0,0,2.5c0,.59,0,1.18,0,1.77,0,.08,0,.73,0,.73Z" transform="translate(-0.26)"/></g></g></svg>