<svg xmlns="http://www.w3.org/2000/svg" viewBox="0 0 1374.88 99.86"><defs><style>.cls-1{fill:#dadada;}</style></defs><title>line</title><g id="Layer_2" data-name="Layer 2"><g id="Layer_1-2" data-name="Layer 1"><path class="cls-1" d="M556.33,56.09c-38.51-7.86-77.7-1.53-115.28,8.06-38.79,9.9-76.81,23.3-116.45,29.55-19.42,3.06-39.22,4.22-58.81,2.08-18.2-2-35.88-7.13-52.86-13.87-34.55-13.73-66.19-33.63-99.13-50.65C82.83,15.25,49.53.94,14.14,0,9.91-.07,5.67,0,1.44.31c-1.91.13-1.93,3.13,0,3C37.22,1,71.4,13.54,103,29.14c33.06,16.34,64.33,36.18,98.13,51,16.26,7.15,33.11,13.15,50.59,16.5,18.91,3.62,38.27,3.94,57.39,2,39.37-3.94,77.17-16.45,115.11-27S501.45,52.11,541,56.64c4.89.56,9.75,1.36,14.57,2.34,1.88.39,2.69-2.5.79-2.89Z"/><path class="cls-1" d="M832.55,62C866.91,72,902,80,937.69,83.46c35.31,3.46,71.21,2.41,105.9-5.42,34.49-7.79,67.12-21.78,100.73-32.48C1179,34.5,1214.69,29,1251.09,28s72.75,1.82,109,5.07l13.38,1.21c1.92.18,1.91-2.82,0-3-36.06-3.3-72.2-6.56-108.44-6.48-35.75.07-71.53,3.6-106,13.23-34,9.49-66.54,23.69-100.57,33.16-34.54,9.61-70.26,12.64-106,10.44-36-2.23-71.53-9.37-106.24-18.93q-6.42-1.77-12.81-3.64a1.5,1.5,0,0,0-.8,2.89Z"/></g></g></svg>