<svg xmlns="http://www.w3.org/2000/svg" viewBox="0 0 252.76 135.16"><defs><style>.cls-1{fill:none;stroke:#fff;stroke-miterlimit:10;stroke-width:0.5px;}.cls-2{fill:#fff;}.cls-3{fill:#dadada;}</style></defs><title>logo</title><g id="Layer_2" data-name="Layer 2"><g id="Layer_1-2" data-name="Layer 1"><path class="cls-1" d="M30.47,101.29v33.5a93.48,93.48,0,0,1-10.41-3.48V97.81A91.46,91.46,0,0,0,30.47,101.29Z" transform="translate(0 -4.36)"/><path class="cls-1" d="M66.56,139.25c-4.61.05-6.92,0-11.54-.32-2-5.25-3-7.9-5-13.23-1.31-.14-2-.22-3.28-.39v12.81a99.16,99.16,0,0,1-10.41-1.84v-33.5a103,103,0,0,0,17.71,2.59c3.91.29,6.94,1.26,9.11,3.09a8.93,8.93,0,0,1,3.24,7.16,10.72,10.72,0,0,1-1.19,5.12,9.58,9.58,0,0,1-4.82,3.85C62.88,130.51,64.11,133.43,66.56,139.25ZM46.79,118.14c1.78.24,2.67.34,4.44.51a5.07,5.07,0,0,0,3.16-.54,2.52,2.52,0,0,0,1.19-2.3c0-2.15-1.33-3.28-4-3.53-1.92-.18-2.87-.29-4.79-.54Z" transform="translate(0 -4.36)"/><path class="cls-1" d="M92.67,124.62c-4.42.61-6.63.87-11,1.28v12.54c-4.06.38-6.08.52-10.14.68V105.63A193.9,193.9,0,0,0,96,103.19v8c-5.75.86-8.63,1.23-14.38,1.76v5.45c4.42-.41,6.63-.68,11-1.28Z" transform="translate(0 -4.36)"/><path class="cls-1" d="M128.3,130.83l-8.48,1.66c-3.71-5.2-5.57-7.8-9.28-13a44.36,44.36,0,0,1-3.61-6.27,21.14,21.14,0,0,1,.82,5.35v16.22c-3.38.6-5.07.89-8.45,1.43v-33.5c3.94-.62,5.91-1,9.84-1.68,3.16,4.34,4.74,6.49,7.9,10.8a35.65,35.65,0,0,1,3.58,5.74,45.73,45.73,0,0,1-.8-8.64V99l8.48-1.66Z" transform="translate(0 -4.36)"/><path class="cls-1" d="M164.39,124.7c-4.61.56-6.92.9-11.54,1.63-2-4.8-3-7.2-4.95-12l-3.28.57v12.81c-4.17.75-6.25,1.14-10.41,2V96.18c7.08-1.37,10.63-2,17.71-3.19,3.91-.64,6.94-.16,9.11,1.35a7.73,7.73,0,0,1,3.24,6.74,11.51,11.51,0,0,1-1.2,5.27,12.3,12.3,0,0,1-4.81,4.56C160.71,116.4,161.94,119.16,164.39,124.7Zm-19.77-16.94c1.78-.32,2.66-.48,4.44-.78a6.49,6.49,0,0,0,3.16-1.33,3.21,3.21,0,0,0,1.19-2.57c0-2.14-1.33-3-4-2.56-1.92.32-2.88.49-4.79.83Z" transform="translate(0 -4.36)"/><path class="cls-1" d="M169.31,124.15V90.66c5.25-.53,7.87-.72,13.12-.9,5.69-.19,10,1.62,12.79,5.1a18.34,18.34,0,0,1,4.25,11.86c0,5-1.52,8.92-4.56,11.91s-7,4.47-11.84,4.61C177.57,123.4,174.81,123.6,169.31,124.15Zm10.41-8.49,2.71-.11a5.44,5.44,0,0,0,4.36-2.56,11.45,11.45,0,0,0,1.77-6.75A12,12,0,0,0,187,99.93a4.81,4.81,0,0,0-4.55-2.56c-1.09,0-1.63.06-2.71.11Z" transform="translate(0 -4.36)"/><path class="cls-1" d="M232.63,97.62v33.49a91.39,91.39,0,0,0-10.41-3.47v-13c-3.18-.9-4.77-1.28-7.95-1.93v13a101.21,101.21,0,0,0-10.4-1.65V90.56a98.59,98.59,0,0,1,10.4,1.66v12.31c3.18.66,4.77,1,7.95,1.93V94.14A93.48,93.48,0,0,1,232.63,97.62Z" transform="translate(0 -4.36)"/><path class="cls-2" d="M31.31,56.29v34a92.82,92.82,0,0,1-10.44-3.51v-34A92.82,92.82,0,0,0,31.31,56.29Z" transform="translate(0 -4.36)"/><path class="cls-2" d="M67.49,94.81c-4.63,0-6.94,0-11.57-.33-2-5.33-3-8-5-13.43-1.32-.14-2-.22-3.29-.4v13a100.26,100.26,0,0,1-10.44-1.86v-34A102.52,102.52,0,0,0,55,60.43c3.91.29,7,1.28,9.12,3.14a9.08,9.08,0,0,1,3.25,7.26A11,11,0,0,1,66.17,76a9.62,9.62,0,0,1-4.83,3.9C63.8,85.93,65,88.91,67.49,94.81ZM47.67,73.38c1.78.24,2.67.34,4.45.52a5,5,0,0,0,3.17-.55A2.55,2.55,0,0,0,56.48,71c0-2.17-1.34-3.32-4-3.58-1.92-.18-2.88-.29-4.8-.55Z" transform="translate(0 -4.36)"/><path class="cls-2" d="M93.66,80c-4.44.6-6.65.87-11.08,1.28V94c-4.07.37-6.1.52-10.16.68v-34A191.05,191.05,0,0,0,97,58.26v8.1c-5.76.85-8.65,1.22-14.41,1.75v5.53c4.43-.41,6.64-.67,11.08-1.28Z" transform="translate(0 -4.36)"/><path class="cls-2" d="M129.36,86.39l-8.49,1.66c-3.72-5.29-5.58-7.93-9.31-13.26A45.26,45.26,0,0,1,108,68.43a21.77,21.77,0,0,1,.82,5.43V90.32c-3.38.6-5.08.89-8.46,1.43v-34c3.94-.63,5.91-1,9.86-1.68,3.16,4.4,4.75,6.59,7.92,11a37.65,37.65,0,0,1,3.58,5.83,47,47,0,0,1-.8-8.76V54.06l8.49-1.66Z" transform="translate(0 -4.36)"/><path class="cls-2" d="M165.55,80.25c-4.63.56-6.94.89-11.57,1.63-2-4.88-3-7.31-5-12.17l-3.29.58v13c-4.17.75-6.26,1.15-10.43,2v-34c7.1-1.37,10.65-2,17.76-3.2,3.91-.63,6.95-.15,9.12,1.4a7.87,7.87,0,0,1,3.25,6.84,11.9,11.9,0,0,1-1.19,5.34,12.44,12.44,0,0,1-4.84,4.63C161.85,71.82,163.08,74.62,165.55,80.25ZM145.72,63c1.79-.32,2.68-.48,4.46-.78a6.37,6.37,0,0,0,3.16-1.35,3.24,3.24,0,0,0,1.2-2.6c0-2.18-1.34-3.06-4-2.61-1.92.32-2.88.49-4.81.84Z" transform="translate(0 -4.36)"/><path class="cls-2" d="M170.48,79.7v-34c5.25-.52,7.88-.72,13.14-.89,5.71-.18,10,1.65,12.83,5.18a18.84,18.84,0,0,1,4.25,12c0,5.08-1.52,9.06-4.56,12.09s-7,4.52-11.87,4.66C178.75,79,176,79.15,170.48,79.7Zm10.43-8.6,2.71-.11a5.4,5.4,0,0,0,4.37-2.6,11.61,11.61,0,0,0,1.78-6.84,12.3,12.3,0,0,0-1.58-6.4,4.84,4.84,0,0,0-4.57-2.61l-2.71.11Z" transform="translate(0 -4.36)"/><path class="cls-2" d="M234,52.78v34a92.82,92.82,0,0,0-10.44-3.51V70c-3.18-.9-4.78-1.29-8-2V81.31a99.37,99.37,0,0,0-10.44-1.67v-34a99.37,99.37,0,0,1,10.44,1.67v12.5c3.18.66,4.78,1,8,2V49.27A92.82,92.82,0,0,1,234,52.78Z" transform="translate(0 -4.36)"/><circle class="cls-3" cx="6.36" cy="64.54" r="6.36"/><circle class="cls-3" cx="246.4" cy="64.54" r="6.36"/><path class="cls-1" d="M30.88,16.15v33.5a94,94,0,0,1-10.4-3.48V12.67A94,94,0,0,0,30.88,16.15Z" transform="translate(0 -4.36)"/><path class="cls-1" d="M67,54.11c-4.62,0-6.92,0-11.54-.32-2-5.26-3-7.9-4.95-13.24-1.32-.13-2-.21-3.28-.38V53A99.16,99.16,0,0,1,36.8,51.13V17.64a102.83,102.83,0,0,0,17.71,2.59c3.91.29,6.94,1.26,9.1,3.09a8.89,8.89,0,0,1,3.25,7.16,10.61,10.61,0,0,1-1.2,5.12,9.55,9.55,0,0,1-4.82,3.85C63.3,45.36,64.53,48.29,67,54.11ZM47.21,33c1.77.23,2.66.34,4.44.51A5.14,5.14,0,0,0,54.81,33,2.5,2.5,0,0,0,56,30.66c0-2.14-1.33-3.28-4-3.53-1.92-.17-2.88-.28-4.79-.54Z" transform="translate(0 -4.36)"/><path class="cls-1" d="M93.09,39.48c-4.42.6-6.63.87-11.06,1.28V53.3c-4,.37-6.08.52-10.13.68V20.48A190.29,190.29,0,0,0,96.42,18v8c-5.76.85-8.63,1.23-14.39,1.76v5.45c4.43-.41,6.64-.68,11.06-1.29Z" transform="translate(0 -4.36)"/><path class="cls-1" d="M128.71,45.69c-3.39.66-5.08,1-8.47,1.65-3.71-5.19-5.57-7.8-9.29-13a44.39,44.39,0,0,1-3.6-6.27,21.27,21.27,0,0,1,.82,5.36V49.61c-3.38.6-5.07.89-8.45,1.42V17.54c3.94-.63,5.9-1,9.84-1.68,3.16,4.34,4.74,6.49,7.9,10.79A37.3,37.3,0,0,1,121,32.39a45.63,45.63,0,0,1-.8-8.63V13.85l8.47-1.66Z" transform="translate(0 -4.36)"/><path class="cls-1" d="M164.81,39.56c-4.62.56-6.92.89-11.54,1.63-2-4.81-3-7.2-5-12l-3.29.58V42.59c-4.16.74-6.24,1.14-10.4,1.95V11c7.08-1.37,10.62-2,17.71-3.2,3.91-.63,6.94-.16,9.1,1.36a7.7,7.7,0,0,1,3.24,6.74,11.46,11.46,0,0,1-1.19,5.26,12.28,12.28,0,0,1-4.82,4.57C161.13,31.26,162.35,34,164.81,39.56ZM145,22.61l4.45-.77a6.49,6.49,0,0,0,3.16-1.33,3.23,3.23,0,0,0,1.19-2.57c0-2.15-1.33-3-4-2.56-1.92.32-2.88.49-4.8.83Z" transform="translate(0 -4.36)"/><path class="cls-1" d="M169.73,39V5.51c5.24-.52,7.87-.72,13.11-.89,5.7-.19,10,1.62,12.8,5.09a18.38,18.38,0,0,1,4.25,11.86c0,5-1.52,8.93-4.56,11.92s-7,4.46-11.84,4.61C178,38.26,175.23,38.46,169.73,39Zm10.41-8.49,2.7-.11a5.45,5.45,0,0,0,4.36-2.57A11.36,11.36,0,0,0,189,21.09a12.1,12.1,0,0,0-1.58-6.3,4.82,4.82,0,0,0-4.56-2.56c-1.08,0-1.62,0-2.7.11Z" transform="translate(0 -4.36)"/><path class="cls-1" d="M233.05,12.48V46a93.48,93.48,0,0,0-10.41-3.48v-13c-3.18-.89-4.77-1.27-7.95-1.92v13a101,101,0,0,0-10.41-1.66V5.42a101,101,0,0,1,10.41,1.65V19.39c3.18.65,4.77,1,7.95,1.93V9A91.46,91.46,0,0,1,233.05,12.48Z" transform="translate(0 -4.36)"/><path class="cls-1" d="M28.47,61.43v33.5a91.46,91.46,0,0,1-10.41-3.48V58A91.39,91.39,0,0,0,28.47,61.43Z" transform="translate(0 -4.36)"/><path class="cls-1" d="M64.56,99.39c-4.61,0-6.92,0-11.54-.31-2-5.26-3-7.91-5-13.24-1.31-.14-2-.22-3.28-.39V98.26a99.16,99.16,0,0,1-10.41-1.84V62.92a101.05,101.05,0,0,0,17.71,2.59c3.91.3,6.94,1.27,9.11,3.1a8.89,8.89,0,0,1,3.24,7.15,10.68,10.68,0,0,1-1.2,5.13,9.56,9.56,0,0,1-4.81,3.85C60.88,90.65,62.11,93.58,64.56,99.39ZM44.79,78.29c1.78.23,2.67.33,4.44.5a5.07,5.07,0,0,0,3.16-.54A2.5,2.5,0,0,0,53.58,76c0-2.14-1.33-3.28-4-3.53-1.92-.18-2.88-.29-4.79-.54Z" transform="translate(0 -4.36)"/><path class="cls-1" d="M90.67,84.76c-4.42.61-6.63.88-11,1.28V98.58c-4.06.38-6.09.52-10.14.69V65.77A190.29,190.29,0,0,0,94,63.33v8c-5.75.85-8.63,1.22-14.38,1.75v5.45c4.42-.41,6.63-.67,11-1.28Z" transform="translate(0 -4.36)"/><path class="cls-1" d="M126.29,91l-8.47,1.66c-3.71-5.2-5.57-7.8-9.28-13a43.4,43.4,0,0,1-3.61-6.27,21.2,21.2,0,0,1,.82,5.35V94.89c-3.38.6-5.07.89-8.45,1.43V62.82c3.94-.62,5.91-1,9.84-1.67,3.16,4.33,4.74,6.49,7.9,10.79a36.54,36.54,0,0,1,3.58,5.74,45.7,45.7,0,0,1-.8-8.63V59.13c3.39-.65,5.09-1,8.47-1.65Z" transform="translate(0 -4.36)"/><path class="cls-1" d="M162.39,84.84c-4.61.56-6.92.9-11.54,1.64-2-4.81-3-7.21-4.95-12l-3.28.58V87.88c-4.17.74-6.25,1.14-10.41,1.94V56.32c7.08-1.36,10.63-2,17.71-3.19,3.91-.63,6.94-.16,9.1,1.36a7.71,7.71,0,0,1,3.25,6.74,11.47,11.47,0,0,1-1.2,5.26,12.35,12.35,0,0,1-4.82,4.57C158.71,76.54,159.94,79.3,162.39,84.84ZM142.62,67.9c1.78-.32,2.66-.47,4.44-.77a6.59,6.59,0,0,0,3.16-1.34,3.2,3.2,0,0,0,1.19-2.57c0-2.14-1.33-3-4-2.56-1.92.33-2.88.49-4.79.84Z" transform="translate(0 -4.36)"/><path class="cls-1" d="M167.31,84.3V50.8c5.25-.53,7.87-.72,13.12-.9,5.69-.18,10,1.62,12.79,5.1a18.38,18.38,0,0,1,4.25,11.86c0,5-1.52,8.93-4.56,11.92s-7,4.46-11.84,4.6C175.57,83.54,172.81,83.74,167.31,84.3Zm10.41-8.49c1.08-.06,1.62-.08,2.71-.11a5.48,5.48,0,0,0,4.36-2.57,11.43,11.43,0,0,0,1.77-6.75A12,12,0,0,0,185,60.07a4.83,4.83,0,0,0-4.55-2.56l-2.71.11Z" transform="translate(0 -4.36)"/><path class="cls-1" d="M230.63,57.76v33.5a93.48,93.48,0,0,0-10.41-3.48v-13c-3.18-.89-4.77-1.27-7.95-1.93v13a98.59,98.59,0,0,0-10.4-1.66V50.7a101.26,101.26,0,0,1,10.4,1.66V64.68c3.18.65,4.77,1,7.95,1.92V54.28A93.48,93.48,0,0,1,230.63,57.76Z" transform="translate(0 -4.36)"/></g></g></svg>